<svg width="50" height="50" viewBox="0 0 50 50" xmlns="http://www.w3.org/2000/svg">
  <!-- Icône Chat seule - Style gradient rose/turquoise -->
  
  <defs>
    <!-- Gradient rose → turquoise -->
    <linearGradient id="iconGrad" x1="0%" y1="0%" x2="100%" y2="100%">
      <stop offset="0%" stop-color="#ff6b6b"/>
      <stop offset="100%" stop-color="#4ecdc4"/>
    </linearGradient>
    
    <!-- Ombre -->
    <filter id="iconShadow">
      <feGaussianBlur in="SourceAlpha" stdDeviation="2"/>
      <feOffset dx="0" dy="3" result="offsetblur"/>
      <feFlood flood-color="rgba(255, 107, 107, 0.3)"/>
      <feComposite in2="offsetblur" operator="in"/>
      <feMerge>
        <feMergeNode/>
        <feMergeNode in="SourceGraphic"/>
      </feMerge>
    </filter>
  </defs>
  
  <!-- Cercle de fond -->
  <circle cx="25" cy="25" r="20" 
          fill="url(#iconGrad)" 
          filter="url(#iconShadow)"/>
  
  <!-- Icône Font Awesome "fa-comments" -->
  <g transform="translate(25, 25)" fill="white">
    <!-- Bulle principale -->
    <path d="M 8,-10 L -8,-10 C -10,-10 -12,-8 -12,-6 L -12,0 C -12,2 -10,4 -8,4 L -5,4 L -5,8 L -1,4 L 8,4 C 10,4 12,2 12,0 L 12,-6 C 12,-8 10,-10 8,-10 Z" 
          fill="white" 
          transform="scale(0.75)"/>
    <!-- Points de discussion -->
    <circle cx="-4" cy="-3" r="1.5" fill="#ff6b6b" opacity="0.8"/>
    <circle cx="0" cy="-3" r="1.5" fill="#ff6b6b" opacity="0.8"/>
    <circle cx="4" cy="-3" r="1.5" fill="#ff6b6b" opacity="0.8"/>
  </g>
</svg>