<svg width="1440" height="900" viewBox="0 0 1440 900" xmlns="http://www.w3.org/2000/svg">
  <!-- Background -->
  <rect width="1440" height="900" fill="#f8f9fa"/>
  
  <!-- Header/Navbar -->
  <rect width="1440" height="80" fill="#ffffff"/>
  <rect x="0" y="79" width="1440" height="1" fill="#e6e9ee"/>
  <circle cx="60" cy="40" r="20" fill="#2e8b57"/>
  <text x="90" y="50" font-family="Poppins, Arial" font-size="24" font-weight="700" fill="#223344">EcoRide</text>
  <circle cx="1360" cy="40" r="24" fill="#e6e9ee"/>
  
  <!-- Page title -->
  <text x="120" y="150" font-family="Poppins, Arial" font-size="32" font-weight="700" fill="#223344">Rechercher un trajet</text>
  
  <!-- Search filters -->
  <rect x="120" y="190" width="900" height="160" rx="12" fill="#ffffff"/>
  <text x="150" y="230" font-family="Poppins, Arial" font-size="16" font-weight="600" fill="#223344">Filtres de recherche</text>
  
  <!-- Input fields row -->
  <rect x="150" y="260" width="260" height="48" rx="8" fill="#f8f9fa" stroke="#e6e9ee"/>
  <text x="170" y="290" font-family="Poppins, Arial" font-size="14" fill="#9aa4b2">Nancy</text>
  
  <rect x="430" y="260" width="260" height="48" rx="8" fill="#f8f9fa" stroke="#e6e9ee"/>
  <text x="450" y="290" font-family="Poppins, Arial" font-size="14" fill="#9aa4b2">Lyon</text>
  
  <rect x="710" y="260" width="180" height="48" rx="8" fill="#f8f9fa" stroke="#e6e9ee"/>
  <text x="730" y="290" font-family="Poppins, Arial" font-size="14" fill="#9aa4b2">25/10/2025</text>
  
  <!-- Search button -->
  <rect x="910" y="260" width="80" height="48" rx="8" fill="#2e8b57"/>
  <text x="950" y="290" font-family="Poppins, Arial" font-size="16" font-weight="600" text-anchor="middle" fill="#ffffff">OK</text>
  
  <!-- Results header -->
  <text x="120" y="430" font-family="Poppins, Arial" font-size="20" font-weight="600" fill="#223344">12 trajets disponibles</text>
  <text x="900" y="430" font-family="Poppins, Arial" font-size="14" fill="#536277">Trier par: Prix ▼</text>
  
  <!-- Ride card 1 -->
  <rect x="120" y="460" width="900" height="140" rx="12" fill="#ffffff" stroke="#e6e9ee"/>
  <circle cx="180" cy="530" r="40" fill="#e6e9ee"/>
  <text x="240" y="510" font-family="Poppins, Arial" font-size="18" font-weight="700" fill="#223344">Nancy → Lyon</text>
  <text x="240" y="540" font-family="Poppins, Arial" font-size="14" fill="#536277">Vendredi 25 Oct · 08:00 · 3 places disponibles</text>
  <text x="240" y="565" font-family="Poppins, Arial" font-size="14" fill="#536277">Conducteur: Marie D. ⭐ 4.8 (24 avis)</text>
  <text x="840" y="530" font-family="Poppins, Arial" font-size="24" font-weight="700" fill="#1f8a5b" text-anchor="end">12,00 €</text>
  
  <!-- Ride card 2 -->
  <rect x="120" y="620" width="900" height="140" rx="12" fill="#ffffff" stroke="#e6e9ee"/>
  <circle cx="180" cy="690" r="40" fill="#e6e9ee"/>
  <text x="240" y="670" font-family="Poppins, Arial" font-size="18" font-weight="700" fill="#223344">Nancy → Lyon</text>
  <text x="240" y="700" font-family="Poppins, Arial" font-size="14" fill="#536277">Vendredi 25 Oct · 14:30 · 2 places disponibles</text>
  <text x="240" y="725" font-family="Poppins, Arial" font-size="14" fill="#536277">Conducteur: Thomas L. ⭐ 4.9 (31 avis)</text>
  <text x="840" y="690" font-family="Poppins, Arial" font-size="24" font-weight="700" fill="#1f8a5b" text-anchor="end">15,00 €</text>
  
  <!-- Ride card 3 -->
  <rect x="120" y="780" width="900" height="140" rx="12" fill="#ffffff" stroke="#e6e9ee"/>
  <circle cx="180" cy="850" r="40" fill="#e6e9ee"/>
  <text x="240" y="830" font-family="Poppins, Arial" font-size="18" font-weight="700" fill="#223344">Nancy → Lyon</text>
  <text x="240" y="860" font-family="Poppins, Arial" font-size="14" fill="#536277">Samedi 26 Oct · 10:00 · 4 places disponibles</text>
  <text x="240" y="885" font-family="Poppins, Arial" font-size="14" fill="#536277">Conducteur: Sophie M. ⭐ 5.0 (18 avis)</text>
  <text x="840" y="850" font-family="Poppins, Arial" font-size="24" font-weight="700" fill="#1f8a5b" text-anchor="end">10,00 €</text>
</svg>